<?xml version="1.0" encoding="UTF-8" standalone="no"?>
<!DOCTYPE svg PUBLIC "-//W3C//DTD SVG 1.1//EN" "http://www.w3.org/Graphics/SVG/1.1/DTD/svg11.dtd">
<svg version="1.1" xmlns="http://www.w3.org/2000/svg" xmlns:xlink="http://www.w3.org/1999/xlink" preserveAspectRatio="xMidYMid meet" viewBox="0 0 235 235" width="235" height="235"><defs><path d="M95.43 227.83L94.18 227.58L92.93 227.31L91.68 227.02L91.68 227.02L90.44 226.72L89.2 226.41L87.97 226.08L86.75 225.74L85.53 225.39L84.32 225.02L83.11 224.64L81.91 224.25L80.71 223.84L79.53 223.42L78.34 222.99L77.17 222.55L75.99 222.09L74.83 221.62L160.18 221.62L159.02 222.09L157.84 222.55L156.67 222.99L155.48 223.42L154.29 223.84L153.1 224.25L151.9 224.64L150.69 225.02L149.48 225.39L148.26 225.74L147.03 226.08L145.8 226.41L144.57 226.72L143.33 227.02L142.08 227.31L140.83 227.58L139.57 227.84L138.31 228.08L137.04 228.31L135.77 228.52L134.49 228.72L133.21 228.91L131.93 229.08L130.64 229.24L129.34 229.38L128.04 229.51L126.74 229.63L125.43 229.72L124.12 229.81L122.8 229.88L121.48 229.93L120.16 229.97L118.83 229.99L117.5 230L116.17 229.99L114.84 229.97L113.52 229.93L112.2 229.88L110.88 229.81L109.57 229.72L108.26 229.63L106.96 229.51L105.66 229.38L104.37 229.24L103.08 229.08L101.79 228.91L100.51 228.72L99.23 228.52L97.96 228.31L96.7 228.08L95.43 227.83ZM192.14 201.67L191.76 202L191.39 202.33L191.01 202.66L190.63 202.98L190.26 203.31L189.87 203.63L189.49 203.95L189.11 204.27L188.72 204.58L188.34 204.9L187.95 205.21L187.56 205.52L187.17 205.83L186.78 206.14L186.38 206.45L185.99 206.76L185.59 207.06L185.19 207.36L184.79 207.66L184.39 207.96L183.99 208.25L183.59 208.55L183.18 208.84L182.78 209.13L182.37 209.42L181.96 209.71L181.55 210L181.14 210.28L180.73 210.56L180.32 210.84L179.9 211.12L179.48 211.4L179.07 211.67L178.65 211.95L178.23 212.22L178.23 212.22L177.81 212.49L177.38 212.75L176.96 213.02L58.05 213.02L57.63 212.75L57.2 212.49L56.78 212.22L56.36 211.95L55.94 211.67L55.52 211.4L55.11 211.12L54.69 210.84L54.28 210.56L53.86 210.28L53.45 210L53.04 209.71L52.63 209.42L52.23 209.13L52.23 209.13L51.82 208.84L51.42 208.55L51.01 208.25L50.61 207.96L50.21 207.66L49.81 207.36L49.41 207.06L49.02 206.76L49.02 206.76L48.62 206.45L48.23 206.14L47.84 205.83L47.45 205.52L47.06 205.21L46.67 204.9L46.28 204.58L45.9 204.27L45.52 203.95L45.13 203.63L44.75 203.31L44.37 202.98L44 202.66L43.62 202.33L43.25 202L42.87 201.67L42.5 201.34L42.13 201.01L192.88 201.01L192.51 201.34L192.14 201.67ZM210.44 180.92L210.21 181.25L209.98 181.59L209.74 181.92L209.51 182.26L209.27 182.59L209.04 182.92L208.8 183.26L208.56 183.59L208.32 183.92L208.08 184.24L208.08 184.24L207.83 184.57L207.59 184.9L207.34 185.23L207.1 185.55L206.85 185.88L206.6 186.2L206.35 186.52L206.1 186.84L205.85 187.16L205.59 187.48L205.34 187.8L205.08 188.12L204.83 188.44L204.57 188.75L204.31 189.07L204.05 189.38L203.79 189.69L203.52 190.01L203.26 190.32L203 190.63L202.73 190.93L202.46 191.24L202.2 191.55L201.93 191.86L201.66 192.16L201.39 192.46L201.11 192.77L200.84 193.07L34.17 193.07L33.9 192.77L33.62 192.46L33.35 192.16L33.08 191.86L32.81 191.55L32.54 191.24L32.28 190.93L32.01 190.63L31.75 190.32L31.48 190.01L31.22 189.69L30.96 189.38L30.7 189.07L30.44 188.75L30.18 188.44L29.92 188.12L29.67 187.8L29.41 187.48L29.16 187.16L28.91 186.84L28.66 186.52L28.41 186.2L28.16 185.88L27.91 185.55L27.66 185.23L27.42 184.9L27.17 184.57L26.93 184.24L26.69 183.92L26.45 183.59L26.21 183.26L25.97 182.92L25.97 182.92L25.74 182.59L25.5 182.26L25.26 181.92L25.03 181.59L24.8 181.25L24.57 180.92L24.34 180.58L24.11 180.24L210.9 180.24L210.67 180.58L210.44 180.92ZM221.63 160.18L221.48 160.53L221.33 160.89L221.18 161.24L221.03 161.6L220.88 161.95L220.73 162.31L220.57 162.66L220.42 163.01L220.26 163.37L220.1 163.72L219.95 164.07L219.78 164.42L219.62 164.77L219.46 165.12L219.3 165.47L219.13 165.81L218.97 166.16L218.8 166.51L218.63 166.85L218.46 167.2L218.29 167.54L218.12 167.88L217.95 168.23L217.77 168.57L217.6 168.91L217.42 169.25L217.24 169.59L217.06 169.93L216.88 170.27L216.7 170.61L216.52 170.95L216.34 171.28L216.16 171.62L215.97 171.96L215.78 172.29L215.6 172.62L215.41 172.96L215.22 173.29L19.79 173.29L19.6 172.96L19.41 172.62L19.22 172.29L19.04 171.96L18.85 171.62L18.67 171.28L18.48 170.95L18.48 170.95L18.3 170.61L18.12 170.27L17.94 169.93L17.76 169.59L17.59 169.25L17.41 168.91L17.23 168.57L17.06 168.23L16.89 167.88L16.72 167.54L16.55 167.2L16.38 166.85L16.21 166.51L16.04 166.16L15.87 165.81L15.71 165.47L15.55 165.12L15.38 164.77L15.22 164.42L15.06 164.07L14.9 163.72L14.75 163.37L14.59 163.01L14.43 162.66L14.28 162.31L14.13 161.95L13.98 161.6L13.82 161.24L13.68 160.89L13.53 160.53L13.38 160.18L13.23 159.82L13.09 159.46L221.92 159.46L221.78 159.82L221.63 160.18ZM227.86 139.45L227.79 139.83L227.71 140.2L227.63 140.58L227.55 140.96L227.47 141.34L227.39 141.71L227.31 142.09L227.23 142.46L227.14 142.84L227.05 143.21L227.05 143.21L226.96 143.59L226.88 143.96L226.88 143.96L226.78 144.33L226.69 144.71L226.6 145.08L226.51 145.45L226.41 145.82L226.31 146.19L226.21 146.56L226.12 146.93L226.01 147.3L225.91 147.67L225.81 148.04L225.71 148.41L225.6 148.78L225.49 149.14L225.39 149.51L225.28 149.88L225.17 150.24L225.05 150.61L224.94 150.97L224.83 151.34L224.71 151.7L224.6 152.06L224.48 152.43L224.36 152.79L224.24 153.15L224.12 153.51L10.89 153.51L10.77 153.15L10.65 152.79L10.53 152.43L10.41 152.06L10.3 151.7L10.18 151.34L10.07 150.97L9.96 150.61L9.84 150.24L9.73 149.88L9.62 149.51L9.52 149.14L9.41 148.78L9.3 148.41L9.2 148.04L9.1 147.67L8.99 147.3L8.89 146.93L8.79 146.56L8.7 146.19L8.6 145.82L8.5 145.45L8.41 145.08L8.32 144.71L8.22 144.33L8.13 143.96L8.04 143.59L7.95 143.21L7.87 142.84L7.78 142.46L7.7 142.09L7.61 141.71L7.53 141.34L7.45 140.96L7.37 140.58L7.29 140.2L7.21 139.83L7.14 139.45L7.06 139.07L6.99 138.69L228.01 138.69L227.94 139.07L227.86 139.45ZM229.96 118.96L229.94 119.48L229.92 119.99L229.89 120.49L229.88 120.72L229.87 120.98L229.85 121.47L229.84 121.52L229.82 121.95L229.8 122.42L229.78 122.89L229.75 123.35L229.72 123.81L229.7 124.25L229.67 124.69L229.65 125.13L229.62 125.55L229.59 125.97L229.56 126.38L229.54 126.79L229.51 127.19L229.48 127.58L229.45 127.96L229.42 128.34L229.39 128.71L229.36 129.08L229.32 129.44L229.29 129.79L229.26 130.13L229.23 130.47L229.19 130.8L229.16 131.12L229.13 131.44L229.09 131.75L229.06 132.05L229.02 132.34L228.99 132.63L228.95 132.92L228.91 133.19L228.89 133.33L228.88 133.46L228.84 133.72L6.16 133.72L6.11 133.33L6.05 132.95L6 132.56L5.95 132.17L5.9 131.78L5.85 131.39L5.8 131L5.76 130.61L5.71 130.22L5.67 129.83L5.63 129.44L5.59 129.04L5.55 128.65L5.51 128.26L5.47 127.87L5.44 127.47L5.4 127.08L5.37 126.68L5.34 126.29L5.31 125.89L5.28 125.5L5.25 125.1L5.23 124.71L5.2 124.31L5.18 123.91L5.16 123.51L5.14 123.12L5.12 122.72L5.1 122.32L5.09 121.92L5.07 121.52L5.06 121.12L5.05 120.98L5.05 120.72L5.03 120.32L5.03 119.92L5.02 119.52L5.01 119.12L5.01 118.96L5.01 118.71L5 118.31L5 117.91L230 117.91L229.98 118.44L229.96 118.96ZM228.32 97.96L228.39 98.37L228.46 98.79L228.53 99.2L228.59 99.61L228.66 100.02L228.72 100.44L228.79 100.85L228.85 101.27L228.91 101.68L228.96 102.1L229.02 102.52L229.07 102.93L229.13 103.35L229.18 103.77L229.23 104.19L229.28 104.61L229.33 105.03L229.37 105.45L229.42 105.87L229.46 106.29L229.5 106.71L229.54 107.13L229.58 107.55L229.61 107.98L229.61 107.98L229.65 108.4L229.65 108.4L229.68 108.82L229.71 109.25L229.74 109.67L229.77 110.1L229.8 110.52L229.82 110.95L229.84 111.37L229.87 111.8L229.89 112.23L229.9 112.65L229.92 113.08L229.94 113.51L229.95 113.94L5.06 113.94L5.07 113.51L5.09 113.08L5.11 112.65L5.12 112.23L5.14 111.8L5.17 111.37L5.19 110.95L5.21 110.52L5.24 110.1L5.27 109.67L5.3 109.25L5.33 108.82L5.36 108.4L5.4 107.98L5.43 107.55L5.47 107.13L5.51 106.71L5.55 106.29L5.59 105.87L5.64 105.45L5.68 105.03L5.73 104.61L5.78 104.19L5.83 103.77L5.88 103.35L5.94 102.93L5.99 102.52L6.05 102.1L6.1 101.68L6.16 101.27L6.22 100.85L6.29 100.44L6.29 100.44L6.35 100.02L6.42 99.61L6.48 99.2L6.55 98.79L6.62 98.37L6.69 97.96L6.77 97.55L6.84 97.14L228.17 97.14L228.24 97.55L228.32 97.96ZM125.55 5.28L129.52 5.63L133.45 6.12L137.33 6.74L141.17 7.49L144.96 8.38L148.7 9.38L152.39 10.52L156.03 11.77L159.6 13.14L163.12 14.63L166.57 16.24L169.96 17.95L173.29 19.78L176.54 21.72L179.72 23.76L182.83 25.9L185.86 28.14L188.81 30.48L191.68 32.92L194.47 35.45L197.17 38.07L199.78 40.77L202.3 43.57L204.73 46.45L207.06 49.4L209.3 52.44L211.43 55.56L213.46 58.74L215.39 62L217.2 65.33L218.91 68.73L220.51 72.18L221.99 75.71L221.99 75.71L223.35 79.29L224.59 82.93L225.71 86.62L226.71 90.36L227.58 94.16L7.43 94.16L8.3 90.36L9.3 86.62L10.42 82.93L11.66 79.29L13.02 75.71L14.5 72.18L16.1 68.73L17.8 65.33L19.62 62L21.55 58.74L23.58 55.56L25.71 52.44L27.94 49.4L30.28 46.45L32.7 43.57L35.22 40.77L37.84 38.07L40.54 35.45L43.32 32.92L46.19 30.48L49.15 28.14L52.18 25.9L55.28 23.76L58.46 21.72L61.72 19.78L65.04 17.95L68.43 16.24L71.88 14.63L75.4 13.14L78.98 11.77L82.61 10.52L86.3 9.38L90.04 8.38L93.83 7.49L97.67 6.74L101.55 6.12L105.48 5.63L109.45 5.28L113.46 5.07L117.5 5L121.54 5.07L125.55 5.28Z" id="a7wUeHZd5"></path><linearGradient id="gradientbHxnPETkz" gradientUnits="userSpaceOnUse" x1="117.5" y1="14.96" x2="117.5" y2="246.13"><stop style="stop-color: #ffda1b;stop-opacity: 1" offset="0%"></stop><stop style="stop-color: #961371;stop-opacity: 1" offset="100%"></stop></linearGradient><mask id="maskd3GTc0ziG" x="-5" y="-5" width="245" height="245" maskUnits="userSpaceOnUse"><rect x="-5" y="-5" width="245" height="245" fill="white"></rect><use xlink:href="#a7wUeHZd5" opacity="1" fill="black"></use></mask></defs><g><g><g><use xlink:href="#a7wUeHZd5" opacity="1" fill="url(#gradientbHxnPETkz)"></use><g mask="url(#maskd3GTc0ziG)"><use xlink:href="#a7wUeHZd5" opacity="1" fill-opacity="0" stroke="#640074" stroke-width="10" stroke-opacity="1"></use></g></g></g></g></svg>