<?xml version="1.0" encoding="utf-8"?>
<!-- Generator: Adobe Illustrator 23.0.1, SVG Export Plug-In . SVG Version: 6.00 Build 0)  -->
<svg version="1.1" id="Layer_1" xmlns="http://www.w3.org/2000/svg" xmlns:xlink="http://www.w3.org/1999/xlink" x="0px" y="0px"
	 viewBox="0 0 717.22 717.22" style="enable-background:new 0 0 717.22 717.22;" xml:space="preserve">
<style type="text/css">
	.st0{fill:#60026D;}
	.st1{fill:url(#SVGID_1_);}
	.st2{fill:url(#SVGID_2_);}
	.st3{fill:url(#SVGID_3_);}
	.st4{fill:url(#SVGID_4_);}
	.st5{fill:url(#SVGID_5_);}
	.st6{fill:url(#SVGID_6_);}
	.st7{fill:url(#SVGID_7_);}
	.st8{fill:url(#SVGID_8_);}
</style>
<circle class="st0" cx="358.61" cy="358.61" r="358.61"/>
<g>
	
		<linearGradient id="SVGID_1_" gradientUnits="userSpaceOnUse" x1="357.0066" y1="1083.7924" x2="358.5385" y2="435.7924" gradientTransform="matrix(1 0 0 -1 0 1082)">
		<stop  offset="0" style="stop-color:rgb(255, 230, 87)"/>
		<stop  offset="1" style="stop-color:#961371"/>
	</linearGradient>
	<path class="st1" d="M229.56,673.46h258.08c-39.79,16.33-83.37,25.33-129.04,25.33C312.92,698.79,269.35,689.79,229.56,673.46z"/>
	
		<linearGradient id="SVGID_2_" gradientUnits="userSpaceOnUse" x1="357.159" y1="1083.7927" x2="358.6908" y2="435.7927" gradientTransform="matrix(1 0 0 -1 0 1082)">
		<stop  offset="0" style="stop-color:rgb(255, 230, 87)"/>
		<stop  offset="1" style="stop-color:#961371"/>
	</linearGradient>
	<path class="st2" d="M130.68,611.14h455.85c-14.91,13.47-31.02,25.63-48.15,36.32H178.82C161.7,636.77,145.59,624.61,130.68,611.14
		z"/>
	
		<linearGradient id="SVGID_3_" gradientUnits="userSpaceOnUse" x1="357.3075" y1="1083.7931" x2="358.8393" y2="435.7931" gradientTransform="matrix(1 0 0 -1 0 1082)">
		<stop  offset="0" style="stop-color:rgb(255, 230, 87)"/>
		<stop  offset="1" style="stop-color:#961371"/>
	</linearGradient>
	<path class="st3" d="M76.19,548.32h564.83c-9.21,13.68-19.38,26.65-30.43,38.82H106.62C95.57,574.97,85.4,562,76.19,548.32z"/>
	
		<linearGradient id="SVGID_4_" gradientUnits="userSpaceOnUse" x1="357.456" y1="1083.7933" x2="358.9878" y2="435.7934" gradientTransform="matrix(1 0 0 -1 0 1082)">
		<stop  offset="0" style="stop-color:rgb(255, 230, 87)"/>
		<stop  offset="1" style="stop-color:#961371"/>
	</linearGradient>
	<path class="st4" d="M42.88,485.5h631.45c-5.81,14.46-12.59,28.43-20.26,41.82H63.14C55.47,513.93,48.69,499.96,42.88,485.5z"/>
	
		<linearGradient id="SVGID_5_" gradientUnits="userSpaceOnUse" x1="357.6045" y1="1083.7938" x2="359.1363" y2="435.7938" gradientTransform="matrix(1 0 0 -1 0 1082)">
		<stop  offset="0" style="stop-color:rgb(255, 230, 87)"/>
		<stop  offset="1" style="stop-color:#961371"/>
	</linearGradient>
	<path class="st5" d="M24.45,422.68h668.31c-2.92,15.33-6.87,30.29-11.78,44.82H36.23C31.32,452.97,27.37,438.01,24.45,422.68z"/>
	
		<linearGradient id="SVGID_6_" gradientUnits="userSpaceOnUse" x1="357.9227" y1="1083.7944" x2="359.4546" y2="435.7945" gradientTransform="matrix(1 0 0 -1 0 1082)">
		<stop  offset="0" style="stop-color:rgb(255, 230, 87)"/>
		<stop  offset="1" style="stop-color:#961371"/>
	</linearGradient>
	<path class="st6" d="M691.45,288.04H25.76C58.24,134.03,194.92,18.43,358.6,18.43S658.97,134.03,691.45,288.04z"/>
	
		<linearGradient id="SVGID_7_" gradientUnits="userSpaceOnUse" x1="357.7813" y1="1083.7942" x2="359.3132" y2="435.7942" gradientTransform="matrix(1 0 0 -1 0 1082)">
		<stop  offset="0" style="stop-color:rgb(255, 230, 87)"/>
		<stop  offset="1" style="stop-color:#961371"/>
	</linearGradient>
	<path class="st7" d="M698.62,347.86H18.59c0.53-17.29,2.36-34.26,5.39-50.81h669.25C696.26,313.6,698.09,330.57,698.62,347.86z"/>
	
		<linearGradient id="SVGID_8_" gradientUnits="userSpaceOnUse" x1="357.753" y1="1083.7941" x2="359.2848" y2="435.7941" gradientTransform="matrix(1 0 0 -1 0 1082)">
		<stop  offset="0" style="stop-color:rgb(255, 230, 87)"/>
		<stop  offset="1" style="stop-color:#961371"/>
	</linearGradient>
	<path class="st8" d="M698.78,359.86c-0.05,16.23-1.25,32.2-3.51,47.82H21.94c-2.26-15.62-3.46-31.59-3.51-47.82H698.78z"/>
</g>
</svg>
